<?xml version="1.0" encoding="UTF-8"?>
<svg viewBox="0 0 297.637788 180.708657" xmlns="http://www.w3.org/2000/svg" xmlns:xlink="http://www.w3.org/1999/xlink">
 <defs>
  <linearGradient id="f" x1="1001.4" x2="1004.8" y1="275.55" y2="266.75" gradientUnits="userSpaceOnUse" spreadMethod="reflect">
   <stop offset="0"/>
   <stop stop-opacity="0" offset="1"/>
  </linearGradient>
  <linearGradient id="a">
   <stop stop-color="#0ff" offset="0"/>
   <stop stop-color="#0ff" stop-opacity="0" offset="1"/>
  </linearGradient>
  <linearGradient id="d" x1="862.89" x2="886.49" gradientUnits="userSpaceOnUse" xlink:href="#a"/>
  <linearGradient id="e" x1="957.93" x2="996.61" gradientUnits="userSpaceOnUse" xlink:href="#a"/>
  <linearGradient id="g" x1="927.72" x2="812.53" y1="301.09" y2="340.08" gradientUnits="userSpaceOnUse" xlink:href="#a"/>
  <linearGradient id="h" x1="1023.9" x2="1023" y1="385.51" y2="397.8" gradientUnits="userSpaceOnUse" xlink:href="#a"/>
  <linearGradient id="i" x1="861.02" x2="900.17" gradientUnits="userSpaceOnUse" xlink:href="#a"/>
  <radialGradient id="b" cx="959.27" cy="331.76" r="81.549" gradientTransform="matrix(1.3404 -.071289 .030821 .57951 -334.22 172.18)" gradientUnits="userSpaceOnUse">
   <stop stop-color="#1effff" stop-opacity="0" offset="0"/>
   <stop stop-color="#1effff" offset="1"/>
  </radialGradient>
  <radialGradient id="c" cx="966.41" cy="347.76" r="75.156" gradientTransform="matrix(.92706 -.069607 .027411 .36507 64.385 233.41)" gradientUnits="userSpaceOnUse">
   <stop stop-color="#c9dfdf" stop-opacity="0" offset="0"/>
   <stop stop-color="#c9dfdf" stop-opacity=".84862" offset="1"/>
  </radialGradient>
 </defs>
 <g transform="translate(-368.52 -782.51)">
  <path d="m549.96981,870.18195c-2.93162,1.7917-5.15867,4.543-7.5,7.0938-4.53058,4.7671-9.38939,9.186-14.4375,13.3124-5.27127,3.8672-11.0477,6.9359-17,9.4063-.00411.0085.00411.0228 0,.0313-3.29502.0115-6.59285.0005-9.875.125-8.7925,1.1498-17.62129,2.018-26.40625,3.2812-5.54015.4472-11.01472,1.3896-16.46875,2.4688l.09375-.1876c-.2668-.0006-.51978-.0893-.78125-.125 .58124-.8379 1.16784-1.6679 1.65625-2.5624-.66711-.6348-1.55261-.1914-2.40625.0312-1.0755.3099-2.05762.8117-3.0625,1.3125-1.08659-.4872-2.18185-.9402-3.25-1.4687-2.37451-1.1952-4.71747-2.4274-7.0625-3.6876-2.24953-1.1899-4.4434-2.4918-6.59375-3.875-2.08009-1.3564-4.10745-2.8203-6.0625-4.375-1.80952-1.4433-3.47492-3.0451-5.5-4.125-.49238-.2455-.90226-.3061-1.3125-.3437-.16461-.1811-.30117-.3842-.46875-.5625l-.4375.6562c-.3295.0863-.64962.1325-1,.3438-1.27384,1.8636-.78097,3.5054-.09375,5.5 .93748,2.7756 1.86325,5.5282 3.0625,8.1875 1.18063,2.3994 2.54201,4.6899 4,6.9063 1.18807,1.7627 2.46771,3.4756 3.71875,5.1874-.13296.174-.29357.3029-.40625.5-.14623.1603-.31984.2942-.4375.5-.03408-.0585-.09121-.0974-.125-.1562-.64042,1.3216.17487,2.851 1.34375,4.375-6.27098,1.7045-12.49218,3.6603-18.6875,5.6562-1.04904.461-3.15469.3668-2.96875,2.0938 .37078-.103.75355-.1503 1.125-.25h.03125c7.52553-2.0183 15.1933-3.4222 22.84375-4.7812 1.21191,1.187 2.56537,2.4408 3.25,3.3124 4.48388,3.5487 9.43913,6.4696 14.625,8.75-1.5124.6517-3.01224,1.3374-4.53125,1.9688-3.31128,1.3326-6.64789,2.6703-10.03125,3.7812-4.6991,1.5721-9.43005,2.9349-14.21875,4.1563-6.59412,1.6352-13.25879,3.0764-19.90625,4.4375-6.75652,1.3622-13.56904,2.4648-20.375,3.5-2.39761.3661-4.94367.6-7.4375,1.0312-1.24692.2156-2.46826.5116-3.65625.875s-2.33252.8072-3.40625,1.4063c-.29027.4715-.34822.7976-.5,1.1875 1.03566-.6168 2.14743-1.0676 3.3125-1.4375 .0189-.006.04356.006.0625,0 1.1613-.3651 2.39941-.6631 3.625-.875 2.49117-.431 5.03424-.6374 7.40625-1 6.80787-1.0327 13.61621-2.1736 20.375-3.5313 6.64885-1.3606 13.2792-2.7727 19.875-4.4062 4.79231-1.2172 9.5469-2.5891 14.25-4.1562 3.38527-1.1101 6.6865-2.4501 10-3.7813 2.05638-.8534 4.12492-1.7388 6.15625-2.6563 .01283.0054.01842.0259.03125.0313-2.02936.9164-4.07066,1.8037-6.125,2.6563-3.3135,1.3311-6.61472,2.6712-10,3.7812-4.70309,1.5671-9.45768,2.9392-14.25,4.1562-6.5958,1.6335-13.22614,3.0457-19.875,4.4063-6.75877,1.3577-13.56714,2.4987-20.375,3.5313-2.37201.3626-4.91509.5692-7.40625,1-1.24558.2153-2.50958.4697-3.6875.8437-1.16507.3699-2.27684.852-3.3125,1.4687-.00688.0178.00661.045 0,.0626 .12317.4032.30954.7665.59375,1.0937 .2795.3219.6524.6159 1.03125.8437-.39943-.2347-.79992-.5054-1.09375-.8437-.2842-.3272-.47058-.7217-.59375-1.125-.11287.2992-.37069.6828-.40625.9375-.08355.5984.04457,1.0517.34375,1.4375s.78629.6858 1.40625.9063 1.37119.3664 2.25.4687c3.3656.3182 6.7488.2792 10.125.2187 3.92496-.101 7.84666-.277 11.75-.75 4.93341-.5977 9.8441-1.3207 14.71875-2.3437 3.07009-.6115 6.14483-1.2819 9.1875-2.0313s6.05847-1.552 9.0625-2.4687c3.11706-.8805 6.20746-1.8583 9.3125-2.7813-.57144.792-1.27171,1.4777-1.71875,2.375-.62372,1.5534-1.13037,3.1152-.9375,4.8438 .35244,1.8788 1.03245,3.5484 2.375,4.875 1.37382,1.2657 2.89601,2.2763 4.625,2.9062 1.82547.6397 3.67511,1.1693 5.5,1.8126 1.87264.5248 3.69696.9651 5.625.4374 .99513-.2301 1.94173-.5598 2.875-.9687 .45405-.0773.92031-.1601 1.375-.2813l.34375-.6562 .0625-.0312c1.2638-.9779 2.45399-2.0444 3.34375-3.4376 1.03733-1.6452 2.07597-3.2098 2.34375-5.2187 .1619-1.4826.25766-2.9603-.1875-4.4063-.57619-1.4748-1.27851-2.7851-2.4375-3.8437-.02729-.0262-.06637-.0364-.09375-.0625-.27234-.3511-.48187-.7488-.8125-1.0625-.60081-.5854-1.20064-1.1507-1.84375-1.6563l-.3125.5626c-.34729-.1913-.65782-.4451-1.03125-.5938-.85095-.3564-1.7244-.6336-2.625-.7812 3.40075-1.1239 6.82229-2.2133 10.21875-3.3438 2.73767-.8752 5.46983-1.7267 8.21875-2.5625 .0528.0046.10344.0268.15625.0313 15.83865.9371 31.72247,2.2979 47.59375,1.6874 18.27978-1.3027 36.83795-.6182 54.8125-4.9374 3.34842-.841 9.11898-3.0365 9.8125-6.9376 .10621-.0978.24071-.1478.34375-.25 .01168-.0179.17828-.1984.375-.6562s.42679-1.1947.625-2.4062c-.04189-.3977-.02722-.8336-.09375-1.2188s-.20731-.7107-.53125-.9375l.09375-.1563c-2.36029-2.4465-4.94303-4.6117-7.65625-6.5624s-5.58526-3.665-8.5625-5.125c-.99823-.4896-2.07152-.7825-3.09375-1.2188-2.66142-1.3573-5.4067-2.5395-8.21875-3.4062-9.85198-2.7972-19.96247-4.3091-30.125-5.0313 4.03611-5.1619 8.4303-10.0279 13.03125-14.625 3.54479-3.6797 7.54542-7.0657 10.15625-11.625 1.14841-1.1507 1.79644-4.7932-.71875-4.0625zm-180.65625,84.9375c.00661-.0175-.00689-.0448 0-.0625l-.03125.0312c.00395.0138.02708.0176.03125.0313zm180-79.25c-.74129.961-1.57018,1.8768-2.34375,2.7813-5.54768,5.8225-11.43415,11.2938-16.53125,17.5937-.57885.8293-1.28918,1.5872-1.9375,2.375 .06466-.0872.08716-.1973.15625-.2813 .64833-.7878 1.35865-1.5457 1.9375-2.375 2.54855-3.15 5.29212-6.0846 8.09375-8.9687s5.66366-5.7138 8.4375-8.625c.70467-.824 1.49431-1.6374 2.1875-2.5zm-126.25,11.7187c-.31047.041-.56875.2379-.875.4063 .05157.1603.08129.2931.125.5625 .13968.8607.2492,2.1029.46875,2.75 .93778,2.7712 1.90235,5.5598 3.09375,8.2188 1.17432,2.3959 2.54609,4.6943 4,6.9062 1.19308,1.7743 2.42962,3.497 3.6875,5.2188l-.03125.0312-.125.0312c.0102.0568-.01123.0996 0,.1563 .00471.0062-.00472.0251 0,.0313l-.21875.375c-.09806.1005-.19108.2029-.28125.3124l.5-.875 .0625-.0937c-1.25781-1.7218-2.52575-3.4133-3.71875-5.1875-1.45398-2.2119-2.79441-4.5102-3.96875-6.9062-1.19141-2.659-2.15595-5.4475-3.09375-8.2188-.29-.8546-.40634-2.6506-.625-3.3125 .32961-.1835.66348-.3854 1-.4063zm100.875,12.6876h3.53125c-.04152.0729-.08594.1441-.125.2187-1.13535-.0797-2.26952-.1589-3.40625-.2187zm-14.28125.7812c.28143-.0032.56229.0332.84375.0312-1.20934.0085-2.41596.0646-3.625.0938 .92797-.0252 1.85436-.1144 2.78125-.125zm-51.40625,2.9688c.05499.0279.13906-.0108.1875.0312 1.31771-1.9589-.30399.3321-.78125,1.0312-.09661.1522-.17434.3193-.28125.4688 .24233-.4513.44537-.9132.71875-1.3438 .08869-.1299.01448.0152.15625-.1874zm-5.375,39.7187-.4375.8125c1.07169.082 2.0394.4616 3.03125.875 .13682.0528.24236.1594.375.2188-.16616-.0105-.33362-.0254-.5-.0313-.95091-.3936-1.87829-.765-2.90625-.8437l.03125-.0626c-.26887-.0675-.54153-.1601-.8125-.2187-.47789-.0926-.95355.076-1.4375.125l2.65625-.875zm-14.125,4.4375c-.6491.4483-1.25559.9677-1.84375,1.5-.24681.2253-.47784.455-.71875.6875-.31306.7571-.58807,1.5336-.78125,2.3125-.17567.7087-.26242,1.4236-.21875,2.1875-.16912-1.7179.36363-3.2484 1-4.7813 .20294-.3263.79502-.9728 1.1875-1.4687 .46085-.1373.91452-.2987 1.375-.4375zm-2.5625,2.1875 .0625-.125c-.01054.0178-.05073.0438-.0625.0625s.00782.0438 0,.0625zm25.9375,5.7813-.03125.25c-.29086,1.0089-.57468,2.0329-1.03125,2.9687-.13364.2122-.35381.3328-.5.5313 .15125-.2171.3286-.3947.46875-.625 .46873-.9922.78903-2.0573 1.09375-3.125zm-14.25,6.875c.09189.0559.1882.1037.28125.1562l.03125.0312c.23675.1724.50201.2641.75.4063 .26333.119.50967.3087.78125.4063 .79066.3536 1.6236.625 2.46875.8124-.20002.0253-.39552.0233-.59375.0313-.48685-.1244-.96682-.2279-1.4375-.4063-.67636-.2561-1.32799-.5875-1.9375-1.0312-.13671-.1224-.2168-.2797-.34375-.4062z" fill="#1e989a" fill-opacity=".38558"/>
  <g transform="matrix(.9849 -.17311 .17311 .9849 -522.81 584.61)" fill="#fff">
   <path d="m1092.4 433.47c0.7955 0.36025 0.8288 1.1903 1.0282 1.9977 0.2809 2.0636-0.8229 3.6006-1.8325 5.3124-1.6371 1.8433-3.7544 3.126-5.9555 4.1832-3.4672 1.3639-7.1335 2.1137-10.796 2.7304-4.8751 0.61153-9.7635 1.1163-14.658 1.549-4.4941 0.38339-8.9876 0.77351-13.484 1.1346-4.3569 0.33068-8.7235 0.5273-13.093 0.47504-4.1157-0.17711-8.2308-0.36329-12.348-0.48921-3.958-0.12407-7.9185-0.14342-11.877-0.23206-4.0296-0.18145-8.0595-0.3468-12.088-0.55591-3.4637-0.1765-6.9305-0.28223-10.398-0.36464-3.7284-0.08631-7.4577-0.1157-11.187-0.14599-3.649 0.00979-7.2957-0.07704-10.943-0.16895-3.2907 0.03694-6.5468-0.46124-9.8146-0.7775-2.7417-0.16582-5.4287-0.64556-8.0399-1.4903-1.9868-0.60798-3.6682-1.6347-5.1443-3.0586-0.56086-1.3928-0.58072-2.8893-1.1474-4.3368-1.0398-1.9666-2.5644-3.6218-4.0115-5.2941-1.5488-1.8869-3.3227-3.5513-5.2277-5.0691-2.0665-1.5772-3.9785-3.3405-5.8676-5.1225-1.1908-1.1566-2.4291-2.2553-3.7295-3.2847l0.62721-1.1833c1.3057 1.0305 2.5492 2.1308 3.7426 3.2918 1.8865 1.7796 3.795 3.5419 5.8584 5.1175 1.9117 1.5218 3.6954 3.1875 5.2492 5.0808 1.4556 1.6792 2.9847 3.343 4.042 5.3116 0.61935 1.4324 0.64366 2.9041 1.1192 4.3205 1.4511 1.4169 3.1161 2.4237 5.0802 3.0249 2.6025 0.83911 5.2802 1.3113 8.0116 1.4768 3.2648 0.31695 6.5181 0.8123 9.8061 0.77362 3.6467 0.09217 7.2927 0.17704 10.941 0.16803 3.7298 0.03038 7.4597 0.06004 11.189 0.14683 3.4682 0.08283 6.9361 0.18907 10.401 0.36619 4.0274 0.20935 8.0566 0.37391 12.086 0.55487 3.9585 0.08633 7.9187 0.10793 11.877 0.2319 4.1175 0.12652 8.2324 0.3137 12.348 0.48894 4.3652 0.0475 8.7275-0.14824 13.08-0.48069 4.4955-0.36201 8.9887-0.75106 13.482-1.1351 4.8915-0.4336 9.7776-0.93632 14.649-1.5527 3.6522-0.6201 7.311-1.3677 10.764-2.7438 2.1815-1.0701 4.2914-2.3448 5.8933-4.2065 0.019-0.03534 0.5424-0.65894 0.6776-2.9157-0.1649-0.71693-0.1808-1.5662-0.8619-1.908l0.5511-1.2206z"/>
   <path d="m960.29594,435.36603c.20262-.75152.60643-1.43549.96875-2.125 .4288-.75264 1.89935-3.23145.71875-1.125-.30909-.19669-.68276-.1549-1.09375-.03125s-.85299.3303-1.21875.46875c-1.11237.44542-2.11056,1.06154-3.125,1.6875l3.75,1.125z" display="block"/>
   <g transform="matrix(.99895 -.04577 .04577 .99895 46.493 192.06)">
    <path d="m902.62 285.51c-0.91029 0.05214-1.8019-0.0901-2.6946-0.24084-2.0419-0.46675-3.9818-1.2794-5.9331-2.0248-2.6207-1.0204-5.2299-2.0701-7.8234-3.1577-2.4886-1.0252-4.925-2.1692-7.3207-3.3945-2.3197-1.2042-4.5747-2.5306-6.7742-3.9414-2.0252-1.2986-3.9084-2.7808-6.1373-3.7041-1.3846-0.51283-2.2547-0.39953-3.2606 0.40806 0.51961-1.9324 0.81183 1.7981 1.3691 3.0574 1.1905 2.6967 2.395 5.3848 3.849 7.951 1.4179 2.3052 3.017 4.4984 4.7214 6.5995 1.3957 1.6835 2.8705 3.3 4.332 4.9264l-0.65068 1.1705c-1.4633-1.628-2.9396-3.2464-4.3388-4.9302-1.709-2.1053-3.3137-4.3013-4.7386-6.6094-1.4624-2.5661-2.6704-5.257-3.8609-7.9581-0.86996-1.9401-1.5023-3.5284-0.26694-5.4803 1.1043-0.72433 2.0416-0.87374 3.437-0.33624 2.2381 0.93012 4.1338 2.4103 6.1661 3.7187 2.1954 1.4089 4.4464 2.733 6.7621 3.9352 2.3926 1.2237 4.826 2.3661 7.3115 3.3899 2.5924 1.0868 5.2003 2.1361 7.8197 3.1558 1.9447 0.74262 3.8779 1.5535 5.9137 2.0153 0.88581 0.1347 1.7673 0.28851 2.6694 0.22916l-0.55111 1.2206z"/>
    <path d="m902.41987,285.45927c-.802.00871-1.6164-.05411-2.4063-.1875-2.0419-.46675-3.9548-1.2859-5.9063-2.03125-2.6207-1.02043-5.2501-2.06868-7.8437-3.15625-2.4886-1.02517-4.9169-2.18099-7.3125-3.40625-2.3198-1.20424-4.5817-2.52666-6.7812-3.9375-1.0127-.64932-1.9975-1.35171-3-2s-2.0106-1.22586-3.125-1.6875c-.6924-.25642-1.265-.37767-1.7813-.3125-.353.04456-.6653.29841-1,.5 .066.15623.1225.26565.1875.53125 .2077.84849.4089,2.08912.6875,2.71875 1.1905,2.69668 2.3897,5.40252 3.8437,7.96875 1.4179,2.30515 3.0457,4.49263 4.75,6.59375 1.3958,1.68351 2.8511,3.31112 4.3126,4.9375l-.375.65625 25.75-7.1875z" display="block"/>
   </g>
   <path d="m1044.7 421.8c4.8455-0.0283 9.6837 0.08555 14.518 0.34002 3.5046 0.09706 7.0055 0.43502 10.472 1.02 3.4669 0.58502 6.8993 1.4273 10.234 2.5161s6.5806 2.4377 9.6903 4.0461 6.084 3.4663 8.8742 5.6102l-0.068 0.13601c0.3706 0.18594 0.5656 0.50949 0.68 0.88401s0.1483 0.80003 0.238 1.19c-0.0736 1.2277-0.2505 2.0033-0.408 2.4821s-0.2956 0.66079-0.306 0.68001c-0.8714 1.0128-1.9001 1.8693-2.9921 2.6181s-2.2472 1.3899-3.4339 1.972c-1.8784 0.74866-3.8226 1.3255-5.7804 1.802s-3.9293 0.85269-5.916 1.19c-5.3008 0.67061-10.624 1.2283-15.946 1.7-4.8893 0.41785-9.763 0.83016-14.654 1.224-4.7359 0.36173-9.4969 0.56171-14.246 0.51001-4.4778-0.19066-8.9503-0.37236-13.43-0.51001-4.3063-0.13488-8.6135-0.17807-12.92-0.272-4.3834-0.19689-8.7762-0.38424-13.158-0.61203-3.7698-0.1927-7.5488-0.28389-11.322-0.37401-4.0573-0.09442-8.1141-0.13694-12.172-0.17-3.9696 0.00982-7.9326-0.06971-11.9-0.17-3.5774 0.04209-7.1241-0.50517-10.676-0.85003-1.486-0.09002-2.9696-0.24714-4.4202-0.51001s-2.8684-0.63154-4.284-1.088c-1.0686-0.32706-2.0711-0.77597-2.9921-1.326s-1.7606-1.2012-2.5501-1.972c-0.01839-0.055-0.01665-0.11485-0.03395-0.17 5.0344-1.6884 10.066-3.4085 15.13-5.0321s10.163-3.1508 15.3-4.4881c11.697-2.8278 23.459-5.3072 35.123-8.2622 7.1377-1.3358 14.354-2.3421 21.59-3.0261s14.492-1.0456 21.761-1.088z" display="block"/>
   <path d="m959.72 436.72c0.07622-0.94018 0.73054-1.7262 1.1623-2.5478 0.42878-0.75264 1.8994-3.2437 0.71876-1.1373-0.61821-0.3934-1.5873 0.15947-2.3188 0.43637-1.1124 0.44541-2.1204 1.089-3.1349 1.715l-0.21955 0.13714 0.48158-1.2496 0.21685-0.13817c1.0218-0.62486 2.0391-1.2633 3.1585-1.7057 0.88351-0.32492 1.777-0.85875 2.5592-0.30928-0.53617 1.2148-1.1851 2.3711-1.8792 3.5241-0.0999 1.6468 0.13378-1.3408-0.00946 0.15595l-0.73527 1.1193z"/>
   <path d="m1093.4732,435.48173c.5101.43006 1.0408.82394 1.5357,1.27552 .6579.38079 1.175.79077 1.5986,1.21175s.7589.86397.9715,1.3074 .3198.89112.3447,1.3393c.0251.44819-.0487.90408-.1879,1.3393-.2786.87043-.8656,1.67934-1.6612,2.3916s-1.789,1.30962-2.915,1.72196c-2.3805,1.12037-4.8213,2.08581-7.3028,2.9337s-5.0068,1.58586-7.5535,2.23216c-5.0936,1.29259-10.2791,2.24524-15.4207,3.15691-8.5076,1.35648-17.0038,2.92275-25.5131,4.30489-4.2546.69106-8.5149,1.33972-12.7879,1.88139s-8.5472.98714-12.8505,1.27552c-6.9009.28462-13.81141.98628-20.71766,1.46685-3.45312.24029-6.8891.43074-10.34312.47832s-6.91979-.04452-10.37452-.35077c-3.28403-.5464-6.62913-1.22368-9.93562-2.10461s-6.58721-1.95964-9.71627-3.31635c-1.56453-.67836-3.09336-1.44025-4.57605-2.26406s-2.91804-1.72358-4.29392-2.71047-2.67381-2.05304-3.9179-3.2207-2.42307-2.4286-3.51039-3.79467c.22316-.58766.56738-1.01689 1.00297-1.37118s.96626-.64041 1.53585-.86099c1.13907-.44114 2.46379-.70773 3.66706-1.21173l.56417-.19134c.08715.34845.14813.71378.28213,1.05231 .74019.72648 1.52321,1.35931 2.38205,1.8814s1.79311.93343 2.78946,1.24363c1.30948.43099 2.63781.76666 3.98059,1.02042s2.69959.42558 4.07446.5102c3.27751.32273 6.54117.83489 9.84175.7972 3.65803.09379 7.31004.16943 10.96988.15944 3.74017.03092 7.48145.07136 11.22082.15944 3.4772.0841 6.96312.17068 10.43711.35077 4.04025.21339 8.08815.38884 12.12975.57398 3.9703.09046 7.9404.12851 11.9103.25511 4.1297.1285 8.2524.29759 12.3803.47831 4.3823.05335 8.7626-.14089 13.1326-.47831 4.5093-.36842 9.0328-.75674 13.5401-1.14797 4.9088-.44151 9.8103-.97037 14.6998-1.5944 1.8367-.31466 3.6756-.64327 5.485-1.08419s3.5895-.99418 5.3284-1.69007c1.1037-.5394 2.1814-1.11934 3.1968-1.81762s1.9686-1.51492 2.7896-2.45538c.4808-.82941.9727-1.623 1.3164-2.45537s.5393-1.70353.4702-2.6786z" display="block"/>
   <path d="m1003.3 453.83h0.4062l-0.3125 0.28125-8.9062 8.7812-0.0625 0.03125h-0.0625l-24.125 1.3438h-0.53125l0.40625-0.28125 12.469-9.0938 0.03125-0.03125h0.03125l20.656-1.0312z" display="block"/>
   <path d="m965.17 473.19c0.74197 0.42406 1.4462 0.90934 2.1522 1.4179 0.76796 0.53801 1.4125 1.1717 1.9729 1.8657s1.0365 1.4482 1.4707 2.2761c0.3541 0.82121 0.54319 1.7039 0.64567 2.5746s0.11834 1.7295 0.10761 2.612c-0.22409 1.2392-0.46071 2.4803-0.89677 3.6567-0.89202 1.7829-2.1496 3.2376-3.5512 4.5896-0.6455 0.60433-1.3738 1.0317-2.1164 1.4552-0.86565 0.25053-1.7548 0.45416-2.6903 0.41045-1.0598-0.05842-2.1269-0.15392-3.1566-0.37313s-2.0221-0.56215-2.9773-1.0821c-0.81379-0.56063-1.5038-1.1727-2.0446-1.903s-0.93245-1.5789-1.112-2.612c-0.13827-0.98547-0.23748-1.9645-0.2511-2.9478s0.05837-1.9708 0.32284-2.9478c0.12143-0.34775 0.29918-0.93724 0.75328-1.7538s1.1846-1.86 2.3675-3.0224c0.84154-0.71072 1.6645-1.3313 2.5468-1.791s1.8241-0.75866 2.9414-0.8209c0.95683-0.09218 1.9073-0.20411 2.8696-0.18658l0.64568-1.4179z" display="block"/>
   <g transform="translate(-74.273 83.545)">
    <path d="m1034.6 389.26c1.1622-0.04521 2.2741 0.22806 3.388 0.52313 1.7252 0.42614 3.2342 1.2774 4.6678 2.2956 1.3539 0.91085 2.2694 2.1251 3.0501 3.5205 0.6379 1.3824 0.7094 2.861 0.7052 4.3536-0.0572 2.0285-1.0029 3.7025-1.9206 5.4633-0.7892 1.4923-1.9231 2.7008-3.1576 3.8258-1.3757 1.2109-3.0446 1.897-4.7559 2.476-1.9927 0.7585-3.9677 0.54727-6.0208 0.25337-2.0157-0.41736-4.0532-0.70559-6.0691-1.1192-1.9121-0.41582-3.6392-1.2542-5.2453-2.3448-1.5797-1.1549-2.4982-2.7205-3.0865-4.5443-0.4014-1.6941-0.0359-3.2917 0.4519-4.9109 0.726-1.8354 1.7274-3.5007 2.9904-5.002l-0.4458 1.2629c-1.6421 2-1.4796 2.0792-1.7706 2.6462-0.5036 1.6003-0.8922 3.1811-0.5173 4.8674 0.5539 1.8078 1.4501 3.3529 3.0049 4.4973 1.5893 1.0824 3.3003 1.911 5.1951 2.3195 2.0138 0.41188 4.0491 0.70012 6.0627 1.1161 2.0378 0.2893 3.9905 0.48244 5.9647-0.27818 1.6968-0.58571 3.3486-1.2782 4.7026-2.4969 1.2211-1.1323 2.339-2.3472 3.1161-3.8403 0.3799-0.98524 0.5661-2.0373 0.7613-3.075 0.0187-1.4782-0.0357-2.9451-0.6527-4.3206-0.7566-1.3869-1.6526-2.5858-2.9907-3.4869-1.4321-0.99169-2.9047-1.8674-4.6249-2.2739-1.1028-0.29026-2.2039-0.55605-3.3541-0.50728l0.5511-1.2206z"/>
    <path d="m1039.6073,393.26434c-.8384-.01469-1.6727.09315-2.5063.17035-1.9468.10424-3.3108.99928-4.7771,2.18974-2.061,1.94696-2.5271,3.39021-2.7387,3.97266-.4608,1.63649-.2833,3.29538-.0424,4.94601 .3128,1.73041 1.3307,2.86134 2.7486,3.80038 1.6642.87088 3.5045,1.10081 5.3511,1.19867 1.3572.06096 2.5899-.32728 3.8317-.80665l-.5006,1.24215c-1.261.4709-2.5138.85167-3.8853.7837-1.8679-.10516-3.7281-.34511-5.4106-1.22754-1.4479-.95363-2.505-2.1006-2.8506-3.85877-.2547-1.65907-.4425-3.32749-.009-4.98021 .8257-2.40336 2.0879-4.59844 3.9697-6.32674 1.4874-1.18976 2.893-2.0593 4.8518-2.15953 .8378-.07636 1.6761-.18309 2.5188-.1648l-.5511,1.22058z"/>
    <path d="m1033.2442,390.51245c.2951.02528.5811.09052.875.125l-.0312.0625c1.1502-.04878 2.2409.20973 3.3437.5 .9583.2264 1.8471.60592 2.6875,1.0625-.8217-.01194-1.6515.08178-2.4687.15625-.9794.05011-1.8136.27843-2.5938.65625s-1.5063.90512-2.25,1.5c-.9409.86414-1.7212,1.84458-2.375,2.90625s-1.181,2.20458-1.5937,3.40625c-.2168.82635-.2724,1.66397-.25,2.5s.1225,1.67046.25,2.5c.1728.87908.5367,1.59679 1.0312,2.21875s1.1198,1.14818 1.8438,1.625c.6992.36676 1.4384.60884 2.1875.78125s1.508.27513 2.2812.34375c-.8282.20125-1.6399.27772-2.4687.28125s-1.6746-.06588-2.5313-.1875c-2.0135-.41599-4.0487-.68188-6.0625-1.09375-.9474-.20426-1.8495-.51449-2.7187-.90625s-1.7053-.86506-2.5-1.40625c-.7774-.57224-1.3886-1.24403-1.875-2s-.848-1.59611-1.125-2.5c-.1852-.83283-.1485-1.64013-.0313-2.4375s.3151-1.5848.5625-2.375c.0062-.0196-.0062-.04291 0-.0625s.0533-.07476.0625-.09375l-.0625.15625c.2301-.26029.4503-.52746.6875-.78125 .6401-.67921 1.2846-1.37198 2.0313-1.9375 .8328-.58078 1.7027-1.0725 2.625-1.5 1.1246-.55092 2.2551-1.10067 3.4062-1.59375 1.1936-.49359 2.4179-.88363 3.6563-1.25 1.0983-.33193 2.2435-.73214 3.4062-.65625z" display="block"/>
   </g>
   <path d="m974.72 453.21c-1.4526 0.85208-2.9305 1.6965-4.375 2.5625-2.4886 1.4642-4.955 2.9425-7.4062 4.4688-2.6339 1.5812-5.375 2.978-8.0938 4.4062-3.374 1.7264-6.7429 3.4538-10.219 4.9688-4.8242 2.1331-9.7281 4.0795-14.688 5.875-6.8344 2.4261-13.765 4.6523-20.688 6.8125-7.0383 2.1744-14.153 4.1131-21.281 5.9688-2.5109 0.65518-5.2065 1.1747-7.8125 1.9062-1.303 0.36576-2.5578 0.80701-3.7812 1.3125s-2.3936 1.0868-3.4688 1.8125c-0.25553 0.50374-0.28889 0.8442-0.40625 1.25 1.0326-0.73873 2.1767-1.3346 3.375-1.8438 1.2116-0.51474 2.5109-0.94709 3.8125-1.3125 2.6032-0.73082 5.2972-1.2265 7.7812-1.875 7.1303-1.8534 14.24-3.8297 21.281-6 6.9239-2.1599 13.82-4.3566 20.656-6.7812 4.9637-1.7917 9.8897-3.7464 14.719-5.875 3.478-1.5143 6.8423-3.2434 10.219-4.9688 2.7211-1.4277 5.4548-2.83 8.0938-4.4062 2.4516-1.5252 4.9501-3.0031 7.4375-4.4688 1.569-0.93862 3.142-1.8559 4.7188-2.7812l0.4062-1.0312h-0.2812zm28.656 0c-1.9997 0.86067-4.0143 1.7274-6 2.625-3.609 1.6832-7.1764 3.4685-10.812 5.0938-4.8561 2.1681-9.8275 4.0398-14.719 6.125-6.1455 2.7046-12.281 5.4549-18.469 8.0625-6.1352 2.6406-12.34 5.1061-18.562 7.5312-6.186 2.5506-12.511 4.755-18.906 6.7188-5.0705 1.6092-10.225 2.9303-15.406 4.125-4.098 0.94571-8.2428 1.6092-12.406 2.1875-3.5826 0.47026-7.1671 0.90247-10.781 1-0.85913 0.17825-1.8775 0.05709-2.7812-0.3125-0.45186-0.18479-0.89882-0.41831-1.25-0.71875-0.33968-0.2906-0.60438-0.64552-0.78125-1.0312-0.08622 0.311-0.30353 0.71144-0.3125 0.96875-0.02108 0.60463 0.16899 1.0593 0.53125 1.4062s0.90874 0.57503 1.5938 0.71875 1.4903 0.1926 2.4375 0.1875c3.619-0.09292 7.2251-0.5297 10.812-1 4.167-0.57737 8.3358-1.2432 12.438-2.1875 5.1842-1.1934 10.333-2.485 15.406-4.0938 3.199-0.98069 6.3771-2.0419 9.5312-3.1562s6.281-2.2866 9.375-3.5625c6.2238-2.4243 12.426-4.8905 18.562-7.5312 6.1887-2.6055 12.324-5.3562 18.469-8.0625 4.8903-2.0884 9.8614-3.9897 14.719-6.1562 3.6371-1.6232 7.205-3.3755 10.812-5.0625 2.1901-0.99072 4.423-1.9171 6.5938-2.9375l0.4375-0.9375h-0.5313z" display="block"/>
   <path d="m872.49832,494.61252c.00505-.01821-.00532-.04409 0-.0625l-.03125.03125c.00576.01316.02526.01819.03125.03125z" display="block"/>
   <path d="m945.88 450.23-4.2812 2.6875-2.0625-1.3438 6.3438-1.3438z" display="block"/>
   <path d="m934.34 445.72c8.6433 11.008 22.907 15.262 36.167 17.431 13.778 1.2005 27.568-0.99189 41.329-1.5497 17.162-1.1304 34.043-4.6539 51.007-7.3126 10.253-1.7869 20.672-3.7802 30.166-8.172 4.4904-1.6164 7.1065-6.1229 1.8597-9.1083-10.656-9.5544-24.924-14.177-39.091-14.57-17.775-0.93553-35.7 0.19978-53.194 3.4736-10.72 2.7159-21.541 5.0049-32.291 7.6039-9.9404 2.5875-19.686 5.9408-29.426 9.2002-2.6683 1.0986-6.0967 0.92799-6.5185 4.1208 0.86597-6.4381 10.731-5.3009 15.493-8.222 9.5974-3.03 19.132-6.2845 29.039-8.1782 9.209-2.3227 18.516-4.2429 27.746-6.454 20.043-3.0095 40.587-4.4695 60.721-1.5221 11.209 1.883 22.102 7.149 30.039 15.346 3.9095 5.6104-4.427 9.726-8.775 11.283-18.645 6.4762-38.474 8.0656-57.787 11.582-16.827 2.5354-33.879 3.087-50.847 4.081-12.912 0.45357-25.921-3.0971-37.078-9.5225-2.4674-2.3335-9.876-6.0681-8.56-9.5098z"/>
   <path d="m1003.4 453.23h-28.375l-0.4062 1.0312c-1.5768 0.92538-3.1497 1.8426-4.7188 2.7812-2.4874 1.4657-4.9859 2.9436-7.4375 4.4688-2.6389 1.5763-5.3726 2.9786-8.0938 4.4062-3.3765 1.7253-6.7408 3.4545-10.219 4.9688-4.829 2.1286-9.755 4.0833-14.719 5.875-6.8364 2.4246-13.732 4.6213-20.656 6.7812-7.0412 2.1703-14.151 4.1466-21.281 6-2.484 0.64854-5.1781 1.1442-7.7812 1.875-1.3016 0.36541-2.6009 0.79776-3.8125 1.3125-1.1983 0.50912-2.3424 1.105-3.375 1.8438-0.00532 0.01841 0.00505 0.04429 0 0.0625 0.17687 0.38573 0.44157 0.74065 0.78125 1.0312 0.35118 0.30044 0.79814 0.53396 1.25 0.71875 0.90373 0.36959 1.9221 0.49075 2.7812 0.3125 3.6142-0.09753 7.1986-0.52974 10.781-1 4.1635-0.57834 8.3082-1.2418 12.406-2.1875 5.1812-1.1947 10.336-2.5158 15.406-4.125 6.3948-1.9637 12.72-4.1681 18.906-6.7188 6.2226-2.4252 12.427-4.8907 18.562-7.5312 6.1877-2.6076 12.323-5.358 18.469-8.0625 4.8913-2.0852 9.8628-3.9569 14.719-6.125 3.636-1.6253 7.2034-3.4106 10.812-5.0938 1.9856-0.89761 4.0003-1.7643 6-2.625z" display="block"/>
   <path d="m1003.4 453.23h-28.375l-0.4062 1.0312c-1.5768 0.92538-3.1497 1.8426-4.7188 2.7812-2.4874 1.4657-4.9859 2.9436-7.4375 4.4688-2.6389 1.5763-5.3726 2.9786-8.0938 4.4062-3.3765 1.7253-6.7408 3.4545-10.219 4.9688-4.829 2.1286-9.755 4.0833-14.719 5.875-6.8364 2.4246-13.732 4.6213-20.656 6.7812-7.0412 2.1703-14.151 4.1466-21.281 6-2.484 0.64854-5.1781 1.1442-7.7812 1.875-1.3016 0.36541-2.6009 0.79776-3.8125 1.3125-1.1983 0.50912-2.3424 1.105-3.375 1.8438-0.00532 0.01841 0.00505 0.04429 0 0.0625 0.17687 0.38573 0.44157 0.74065 0.78125 1.0312 0.35118 0.30044 0.79814 0.53396 1.25 0.71875 0.90373 0.36959 1.9221 0.49075 2.7812 0.3125 3.6142-0.09753 7.1986-0.52974 10.781-1 4.1635-0.57834 8.3082-1.2418 12.406-2.1875 5.1812-1.1947 10.336-2.5158 15.406-4.125 6.3948-1.9637 12.72-4.1681 18.906-6.7188 6.2226-2.4252 12.427-4.8907 18.562-7.5312 6.1877-2.6076 12.323-5.358 18.469-8.0625 4.8913-2.0852 9.8628-3.9569 14.719-6.125 3.636-1.6253 7.2034-3.4106 10.812-5.0938 1.9856-0.89761 4.0003-1.7643 6-2.625z" display="block"/>
   <g transform="translate(57.52 150.92)">
    <path d="m1019.9 274.25c-0.1137 1.2093-0.975 1.9475-1.7915 2.6937-1.3239 0.97992-2.9309 1.3593-4.5043 1.7433-2.2183 0.58364-4.4735 1.0032-6.7306 1.4034-3.1121 0.54942-2.7537 1.4477-2.9287 1.83 0.082 2.0222 1.1126 3.3031 2.6804 4.44 1.7788 1.0317 3.7321 1.2908 5.7476 1.2939 2.0989-0.14441 4.0968-0.81775 6.0748-1.4867 1.8305-0.58882 3.5711-1.4027 5.2623-2.3085 1.5706-0.79316 2.8018-1.91 3.8352-3.3109-0.1726 0.47085-0.2372 0.47543 0.2522-1.0079l0.7638-1.1c-0.3712 1.1773-0.7199 2.337-1.4448 3.3766-1.0619 1.3884-2.3174 2.496-3.8941 3.2894-1.7002 0.90096-3.4486 1.7108-5.2849 2.2994-1.9887 0.67105-4.0003 1.3385-6.111 1.4711-2.0409-0.01247-4.0192-0.28496-5.8196-1.3287-1.5982-1.1516-2.6785-2.4504-2.794-4.5064 0.0902-2.7173 1.7353-3.7976 4.1915-4.1811 2.2537-0.40206 4.5056-0.82235 6.7205-1.4076 1.5619-0.38335 3.1538-0.76748 4.4544-1.7632 1.5517-1.4801 0.2721 0.3069 0.5855-0.3206l0.7353-1.1193z"/>
    <path d="m1019.5745,274.94102c-.1135.29222-.1553.63117-.3437.875-.3316.42899-.748.78313-1.1563,1.15625-.662.48996-1.3923.82841-2.1563,1.09375s-1.557.46425-2.3437.65625c-2.2183.58365-4.4929,1.00615-6.75,1.40625-1.556.27472-2.2412.62772-2.5625.96875s-.2563.68386-.3438.875c.0411,1.01108.3174,1.81613.7813,2.53125s1.0911,1.33781 1.875,1.90625c.8894.51586 1.8499.83712 2.8125,1.03125s1.9298.24845 2.9375.25c1.0495-.07221 2.0847-.26125 3.0937-.53125s2.011-.60303 3-.9375c1.8306-.58883 3.5589-1.40676 5.25-2.3125 .7854-.39657 1.4918-.88404 2.125-1.4375s1.2021-1.17454 1.7188-1.875c-.1726.47087-.2394.45205.25-1.03125l.625-.90625c-.0539-.02807-.1023-.06584-.1562-.09375-2.7792-1.43743-5.6802-2.6391-8.6563-3.625z" display="block"/>
   </g>
   <g transform="translate(57.52 150.92)">
    <path d="m959.61 271.71c6.0564-3.1779 11.852-6.9264 17.025-11.409 4.906-4.7133 9.5732-9.6934 13.856-14.98 2.2032-2.8189 4.2713-5.8494 7.189-7.9859 2.5947-1.0316 2.297 2.6893 1.2049 3.9721-2.2623 4.8471-6.1272 8.6722-9.4835 12.759-4.5846 5.3704-8.9146 10.988-12.759 16.901 0.53339-2.0263 2.1478-3.565 3.1922-5.3535 4.7116-6.8789 10.355-13.034 15.6-19.493 1.3135-1.8086 2.9458-3.563 3.4885-5.7765 0.5221-2.6915-2.4821-1.963-3.3572-0.37492-3.7717 3.7977-6.5432 8.4516-10.339 12.232-4.529 4.9288-9.0262 10.008-14.648 13.732-3.6542 2.5929-7.4647 4.973-11.448 7.028l0.47845-1.2508z"/>
    <path d="m977.13 269.99c0.29189-0.7222 0.60986-1.4447 1.0625-2.0938 0.60083-0.86153 1.2591-1.6995 1.7812-2.5938 2.3558-3.4394 4.9383-6.669 7.5938-9.875s5.3773-6.3642 8-9.5938c0.65672-0.90428 1.4224-1.8086 2.0625-2.75s1.1661-1.9245 1.4375-3.0312c0.13052-0.67287 0.0344-1.1521-0.1875-1.4375s-0.57116-0.3971-0.96875-0.375-0.8222 0.18794-1.2188 0.4375-0.74998 0.60298-0.96875 1c-1.8859 1.8988-3.5175 4.0142-5.1562 6.125s-3.2898 4.2033-5.1875 6.0938c-2.2645 2.4644-4.5131 4.961-6.9062 7.3125-1.1966 1.1757-2.4358 2.3294-3.7188 3.4062s-2.6258 2.1002-4.0312 3.0312c-3.2837 2.33-6.7332 4.4076-10.281 6.3125l16.688-1.9688z" display="block"/>
    <path d="m977.13 269.99c0.29189-0.7222 0.60986-1.4447 1.0625-2.0938 0.60083-0.86153 1.2591-1.6995 1.7812-2.5938 2.3558-3.4394 4.9383-6.669 7.5938-9.875s5.3773-6.3642 8-9.5938c0.65672-0.90428 1.4224-1.8086 2.0625-2.75s1.1661-1.9245 1.4375-3.0312c0.13052-0.67287 0.0344-1.1521-0.1875-1.4375s-0.57116-0.3971-0.96875-0.375-0.8222 0.18794-1.2188 0.4375-0.74998 0.60298-0.96875 1c-1.8859 1.8988-3.5175 4.0142-5.1562 6.125s-3.2898 4.2033-5.1875 6.0938c-2.2645 2.4644-4.5131 4.961-6.9062 7.3125-1.1966 1.1757-2.4358 2.3294-3.7188 3.4062s-2.6258 2.1002-4.0312 3.0312c-3.2837 2.33-6.7332 4.4076-10.281 6.3125l16.688-1.9688z" display="block"/>
   </g>
   <g transform="matrix(.99903 .043994 -.043994 .99903 71.332 113.53)">
    <path d="m882.05 297.62c-7.5197 3.2662-15.05 6.5417-22.325 10.326-0.53474 0.58466-2.3853 1.7509-2.3234 0.34722 1.1104-0.90051 2.6076-1.0648 3.8754-1.6735 4.5476-1.9998 9.2672-3.5737 13.957-5.203 4.6382-1.578 9.2984-3.0908 13.931-4.6868-0.33083 1.4883-2.019 1.8236-3.2689 2.1788-9.6408 3.2446-19.361 6.3216-28.695 10.394-0.46795-1.6743 1.7734-1.9335 2.8111-2.5653 6.8052-3.2852 13.613-6.5803 20.58-9.5074 0.68221-0.33741 2.5948-1.2364 1.459 0.3899z"/>
    <path d="m865.66 305c3.0357-1.1415 6.0561-2.335 9.1187-3.3991 4.8184-1.6394 9.6663-3.213 14.479-4.8698h-7.1904c0.06358 0.02317 0.1814-0.00228 0.1961 0.06536 0.03163 0.14554-0.06254 0.39187-0.35952 0.81709-3.9323 1.708-7.863 3.4185-11.766 5.1967-1.5124 0.68903-2.9768 1.4766-4.4776 2.1898z" display="block"/>
    <path d="m865.66 305c3.0357-1.1415 6.0561-2.335 9.1187-3.3991 4.8184-1.6394 9.6663-3.213 14.479-4.8698h-7.1904c0.06358 0.02317 0.1814-0.00228 0.1961 0.06536 0.03163 0.14554-0.06254 0.39187-0.35952 0.81709-3.9323 1.708-7.863 3.4185-11.766 5.1967-1.5124 0.68903-2.9768 1.4766-4.4776 2.1898z" display="block"/>
   </g>
  </g>
  <g transform="matrix(.9849 -.17311 .17311 .9849 -439.01 722.83)">
   <path d="m1034.8 282.55c0.7955 0.36025 0.8288 1.1903 1.0282 1.9977 0.2809 2.0636-0.8229 3.6006-1.8325 5.3124-1.6371 1.8433-3.7544 3.126-5.9555 4.1832-3.4672 1.3639-7.1335 2.1137-10.796 2.7304-4.8751 0.61153-9.7635 1.1163-14.658 1.549-4.4941 0.38339-8.9876 0.77351-13.484 1.1346-4.357 0.33068-8.7235 0.5273-13.093 0.47504-4.1157-0.17711-8.2308-0.36329-12.348-0.48921-3.958-0.12407-7.9185-0.14342-11.877-0.23206-4.0296-0.18145-8.0595-0.3468-12.088-0.55591-3.4637-0.1765-6.9305-0.28223-10.398-0.36464-3.7284-0.08631-7.4577-0.1157-11.187-0.14599-3.649 0.00979-7.2957-0.07704-10.943-0.16895-3.2907 0.03694-6.5468-0.46124-9.8146-0.7775-2.7417-0.16582-5.4287-0.64556-8.0399-1.4903-1.9868-0.60798-3.6682-1.6347-5.1443-3.0586-0.56086-1.3928-0.58072-2.8893-1.1474-4.3368-1.0398-1.9666-2.5644-3.6218-4.0115-5.2941-1.5488-1.8869-3.3227-3.5513-5.2277-5.0691-2.0665-1.5772-3.9785-3.3405-5.8676-5.1225-1.1908-1.1566-2.4291-2.2553-3.7295-3.2847l0.62721-1.1833c1.3057 1.0305 2.5492 2.1308 3.7426 3.2918 1.8865 1.7796 3.795 3.5419 5.8584 5.1175 1.9117 1.5218 3.6954 3.1875 5.2492 5.0808 1.4556 1.6792 2.9847 3.343 4.042 5.3116 0.61935 1.4324 0.64366 2.9041 1.1192 4.3205 1.4511 1.4169 3.1161 2.4237 5.0802 3.0249 2.6025 0.83911 5.2802 1.3113 8.0116 1.4768 3.2648 0.31695 6.5181 0.8123 9.8061 0.77362 3.6467 0.09217 7.2927 0.17704 10.941 0.16803 3.7298 0.03038 7.4597 0.06004 11.189 0.14683 3.4682 0.08283 6.9361 0.18907 10.401 0.36619 4.0274 0.20935 8.0566 0.37391 12.085 0.55487 3.9585 0.08633 7.9188 0.10793 11.877 0.2319 4.1174 0.12652 8.2323 0.3137 12.348 0.48894 4.3652 0.0475 8.7275-0.14824 13.08-0.48069 4.4955-0.36201 8.9887-0.75106 13.482-1.1351 4.8915-0.4336 9.7776-0.93632 14.649-1.5527 3.6522-0.6201 7.311-1.3677 10.764-2.7438 2.1815-1.0701 4.2914-2.3448 5.8933-4.2065 0.019-0.03534 0.5424-0.65894 0.6776-2.9157-0.1649-0.71693-0.1808-1.5662-0.8619-1.908l0.5511-1.2206z" fill="#0ff"/>
   <path d="m902.77574,284.44153c.20262-.75152.60643-1.43549.96875-2.125 .4288-.75264 1.89935-3.23145.71875-1.125-.30909-.19669-.68276-.1549-1.09375-.03125s-.85299.3303-1.21875.46875c-1.11237.44542-2.11056,1.06154-3.125,1.6875l3.75,1.125z" display="block" fill="#0ff"/>
   <g transform="matrix(.99895 -.04577 .04577 .99895 -11.028 41.138)">
    <path d="m902.62 285.51c-0.91029 0.05214-1.8019-0.0901-2.6946-0.24084-2.0419-0.46675-3.9818-1.2794-5.9331-2.0248-2.6207-1.0204-5.2299-2.0701-7.8234-3.1577-2.4886-1.0252-4.925-2.1692-7.3207-3.3945-2.3197-1.2042-4.5747-2.5306-6.7742-3.9414-2.0252-1.2986-3.9084-2.7808-6.1373-3.7041-1.3846-0.51283-2.2547-0.39953-3.2606 0.40806 0.51961-1.9324 0.81183 1.7981 1.3691 3.0574 1.1905 2.6967 2.395 5.3848 3.849 7.951 1.4179 2.3052 3.017 4.4984 4.7214 6.5995 1.3957 1.6835 2.8705 3.3 4.332 4.9264l-0.65068 1.1705c-1.4633-1.628-2.9396-3.2464-4.3388-4.9302-1.709-2.1053-3.3137-4.3013-4.7386-6.6094-1.4624-2.5661-2.6704-5.257-3.8609-7.9581-0.86996-1.9401-1.5023-3.5284-0.26694-5.4803 1.1043-0.72433 2.0416-0.87374 3.437-0.33624 2.2381 0.93012 4.1338 2.4103 6.1661 3.7187 2.1954 1.4089 4.4464 2.733 6.7621 3.9352 2.3926 1.2237 4.826 2.3661 7.3115 3.3899 2.5924 1.0868 5.2003 2.1361 7.8197 3.1558 1.9447 0.74262 3.8779 1.5535 5.9137 2.0153 0.88581 0.1347 1.7673 0.28851 2.6694 0.22916l-0.55111 1.2206z"/>
    <path d="m902.41987,285.45927c-.802.00871-1.6164-.05411-2.4063-.1875-2.0419-.46675-3.9548-1.2859-5.9063-2.03125-2.6207-1.02043-5.2501-2.06868-7.8437-3.15625-2.4886-1.02517-4.9169-2.18099-7.3125-3.40625-2.3198-1.20424-4.5817-2.52666-6.7812-3.9375-1.0127-.64932-1.9975-1.35171-3-2s-2.0106-1.22586-3.125-1.6875c-.6924-.25642-1.265-.37767-1.7813-.3125-.353.04456-.6653.29841-1,.5 .066.15623.1225.26565.1875.53125 .2077.84849.4089,2.08912.6875,2.71875 1.1905,2.69668 2.3897,5.40252 3.8437,7.96875 1.4179,2.30515 3.0457,4.49263 4.75,6.59375 1.3958,1.68351 2.8511,3.31112 4.3126,4.9375l-.375.65625 25.75-7.1875z" display="block" fill="url(#i)"/>
   </g>
   <path d="m984.99922,271.35601c4.4534-.02602 8.9002.07862 13.3437.3125 3.22098.08921 6.43868.39982 9.62498.9375s6.341,1.31179 9.4063,2.3125 6.0482,2.24045 8.9063,3.71875 5.5917,3.18581 8.1562,5.15625l-.0625.125c.3406.1709.5198.46828.625.8125s.1363.73529.2187,1.09375c-.0676,1.12839-.2302,1.8412-.375,2.28125s-.2717.60733-.2812.625c-.8009.93083-1.7464,1.71803-2.75,2.40625s-2.0655,1.27746-3.1562,1.8125c-1.7264.68808-3.5132,1.21828-5.3126,1.65625s-3.6114.7837-5.4374,1.09375c-4.8719.61636-9.7648,1.12891-14.6563,1.5625-4.49368.38405-8.97308.763-13.46868,1.125-4.3528.33246-8.7286.51626-13.0938.46875-4.1155-.17523-8.2262-.34223-12.3438-.46875-3.9579-.12396-7.9166-.16367-11.875-.25-4.0288-.18095-8.0662-.35315-12.0937-.5625-3.4648-.17711-6.938-.26093-10.4063-.34375-3.729-.08678-7.4576-.12586-11.1874-.15625-3.6484.00902-7.2908-.06407-10.9376-.15625-3.288.03869-6.5477-.46429-9.8124-.78125-1.3658-.08274-2.7293-.22714-4.0626-.46875s-2.6363-.58044-3.9374-1c-.9821-.3006-1.9035-.7132-2.75-1.21875s-1.6182-1.10406-2.3438-1.8125c-.0169-.05055-.0153-.10556-.0312-.15625 4.6271-1.55176 9.2513-3.13273 13.9062-4.625s9.3405-2.89584 14.0625-4.125c10.7506-2.59898 21.5612-4.87784 32.2813-7.59375 6.5602-1.22769 13.1929-2.15262 19.8437-2.78125s13.3198-.96095 20-1z" display="block" fill="url(#c)"/>
   <path d="m902.2 285.8c0.07622-0.94018 0.73054-1.7262 1.1623-2.5478 0.42878-0.75264 1.8994-3.2437 0.71876-1.1373-0.61821-0.3934-1.5873 0.15947-2.3188 0.43637-1.1124 0.44541-2.1204 1.089-3.1349 1.715l-0.21955 0.13714 0.48158-1.2496 0.21685-0.13817c1.0218-0.62486 2.0391-1.2633 3.1585-1.7057 0.88351-0.32492 1.777-0.85875 2.5592-0.30928-0.53617 1.2148-1.1851 2.3711-1.8792 3.5241-0.0999 1.6468 0.13378-1.3408-0.00946 0.15595l-0.73527 1.1193z"/>
   <path d="m1035.4818,284.55723c.5086.42146 1.0377.80745 1.5312,1.25 .6559.37317 1.1715.77495 1.5938,1.1875s.7567.84669.9687,1.28125 .3188.87328.3437,1.3125c.025.43922-.0486.88599-.1874,1.3125-.2778.85302-.863,1.64574-1.6563,2.34375s-1.7837,1.28341-2.9063,1.6875c-2.3735,1.09796-4.8071,2.04408-7.2812,2.875s-4.992,1.55414-7.5312,2.1875c-5.0785,1.26673-10.2486,2.20032-15.375,3.09375-8.48241,1.32934-16.95341,2.86427-25.43761,4.21875-4.242.67724-8.4896,1.31292-12.75,1.84375s-8.5219.96739-12.81244,1.25c-6.8805.27892-13.7705.96654-20.6563,1.4375-3.4429.23548-6.8687.42212-10.3125.46875s-6.8993-.04363-10.3438-.34375c-3.2743-.53547-6.6095-1.1992-9.9062-2.0625s-6.5677-1.92043-9.6875-3.25c-1.5599-.66479-3.0842-1.41143-4.5625-2.21875s-2.9094-1.6891-4.2812-2.65625-2.6659-2.01196-3.9063-3.15625-2.4159-2.38001-3.5-3.71875c.2225-.5759.5657-.99654 1-1.34375s.9634-.62759 1.5313-.84375c1.1357-.43232 2.4565-.69357 3.6562-1.1875 .1871-.06259.3754-.12484.5625-.1875 .0869.34148.1477.69949.2813,1.03125 .738.71194 1.5187,1.33211 2.375,1.84375s1.7878.91476 2.7812,1.21875c1.3056.42237 2.63.75132 3.9688,1s2.6916.41708 4.0624.5c3.2678.31627 6.5218.81818 9.8126.78125 3.6472.09192 7.2884.16604 10.9374.15625 3.7291.0303 7.4593.06993 11.1876.15625 3.4669.08242 6.9425.16726 10.4062.34375 4.0282.20912 8.0642.38106 12.0938.5625 3.9585.08865 7.91694.12594 11.87504.25 4.1175.12593 8.228.29164 12.3437.46875 4.3693.05227 8.7366-.13808 13.0937-.46875 4.4959-.36105 9.006-.7416 13.50001-1.125 4.8943-.43268 9.7812-.95096 14.6563-1.5625 1.8312-.30837 3.6647-.6304 5.4687-1.0625s3.5789-.97428 5.3126-1.65625c1.1005-.52861 2.175-1.09694 3.1874-1.78125s1.9627-1.48461 2.7813-2.40625c.4794-.81282.9698-1.59053 1.3125-2.40625s.5377-1.66944.4688-2.625z" display="block" fill="url(#b)"/>
   <path d="m945.75 302.9h0.40625l-0.3125 0.28125-8.9062 8.7812-0.0625 0.03125h-0.0625l-24.125 1.3438h-0.53125l0.40625-0.28125 12.469-9.0938 0.03125-0.03125h0.03125l20.656-1.0312z" display="block" fill="#00aaac"/>
   <path d="m908.46685,324.68987c.6464.35515 1.25994.76157 1.875,1.1875 .66904.45058 1.23058.98132 1.71875,1.5625s.90295,1.21282 1.28125,1.90625c.30849.68776.47322,1.42702.5625,2.15625s.1031,1.44843.09375,2.1875c-.19522,1.03778-.40136,2.07727-.78125,3.0625-.77712,1.49314-1.87267,2.71146-3.09375,3.84375-.56235.50612-1.1968.86408-1.84375,1.21875-.75414.20981-1.52879.38036-2.34375.34375-.92331-.04893-1.85292-.12891-2.75-.3125s-1.76164-.4708-2.59375-.90625c-.70896-.46952-1.31009-.98212-1.78125-1.59375s-.81234-1.3223-.96875-2.1875c-.12046-.82532-.20689-1.64526-.21875-2.46875s.05085-1.65051.28125-2.46875c.10579-.29123.26064-.78493.65625-1.46875s1.032-1.55777 2.0625-2.53125c.73314-.59523 1.45007-1.11496 2.21875-1.5s1.58909-.63538 2.5625-.6875c.83358-.0772 1.66161-.17094 2.5-.15625l.5625-1.1875z" display="block" fill="#008a8c" fill-opacity=".88235"/>
   <g transform="translate(-131.79 -67.38)">
    <path d="m1034.6 389.26c1.1622-0.04521 2.2741 0.22806 3.388 0.52313 1.7252 0.42614 3.2342 1.2774 4.6678 2.2956 1.3539 0.91085 2.2694 2.1251 3.0501 3.5205 0.6379 1.3824 0.7094 2.861 0.7052 4.3536-0.0572 2.0285-1.0029 3.7025-1.9206 5.4633-0.7892 1.4923-1.9231 2.7008-3.1576 3.8258-1.3757 1.2109-3.0446 1.897-4.7559 2.476-1.9927 0.7585-3.9677 0.54727-6.0208 0.25337-2.0157-0.41736-4.0532-0.70559-6.0691-1.1192-1.9121-0.41582-3.6392-1.2542-5.2453-2.3448-1.5797-1.1549-2.4982-2.7205-3.0865-4.5443-0.4014-1.6941-0.0359-3.2917 0.4519-4.9109 0.726-1.8354 1.7274-3.5007 2.9904-5.002l-0.4458 1.2629c-1.6421 2-1.4796 2.0792-1.7706 2.6462-0.5036 1.6003-0.8922 3.1811-0.5173 4.8674 0.5539 1.8078 1.4501 3.3529 3.0049 4.4973 1.5893 1.0824 3.3003 1.911 5.1951 2.3195 2.0138 0.41188 4.0491 0.70012 6.0627 1.1161 2.0378 0.2893 3.9905 0.48244 5.9647-0.27818 1.6968-0.58571 3.3486-1.2782 4.7026-2.4969 1.2211-1.1323 2.339-2.3472 3.1161-3.8403 0.3799-0.98524 0.5661-2.0373 0.7613-3.075 0.0187-1.4782-0.0357-2.9451-0.6527-4.3206-0.7566-1.3869-1.6526-2.5858-2.9907-3.4869-1.4321-0.99169-2.9047-1.8674-4.6249-2.2739-1.1028-0.29026-2.2039-0.55605-3.3541-0.50728l0.5511-1.2206z"/>
    <path d="m1039.6073,393.26434c-.8384-.01469-1.6727.09315-2.5063.17035-1.9468.10424-3.3108.99928-4.7771,2.18974-2.061,1.94696-2.5271,3.39021-2.7387,3.97266-.4608,1.63649-.2833,3.29538-.0424,4.94601 .3128,1.73041 1.3307,2.86134 2.7486,3.80038 1.6642.87088 3.5045,1.10081 5.3511,1.19867 1.3572.06096 2.5899-.32728 3.8317-.80665l-.5006,1.24215c-1.261.4709-2.5138.85167-3.8853.7837-1.8679-.10516-3.7281-.34511-5.4106-1.22754-1.4479-.95363-2.505-2.1006-2.8506-3.85877-.2547-1.65907-.4425-3.32749-.009-4.98021 .8257-2.40336 2.0879-4.59844 3.9697-6.32674 1.4874-1.18976 2.893-2.0593 4.8518-2.15953 .8378-.07636 1.6761-.18309 2.5188-.1648l-.5511,1.22058z"/>
    <path d="m1033.2442,390.51245c.2951.02528.5811.09052.875.125l-.0312.0625c1.1502-.04878 2.2409.20973 3.3437.5 .9583.2264 1.8471.60592 2.6875,1.0625-.8217-.01194-1.6515.08178-2.4687.15625-.9794.05011-1.8136.27843-2.5938.65625s-1.5063.90512-2.25,1.5c-.9409.86414-1.7212,1.84458-2.375,2.90625s-1.181,2.20458-1.5937,3.40625c-.2168.82635-.2724,1.66397-.25,2.5s.1225,1.67046.25,2.5c.1728.87908.5367,1.59679 1.0312,2.21875s1.1198,1.14818 1.8438,1.625c.6992.36676 1.4384.60884 2.1875.78125s1.508.27513 2.2812.34375c-.8282.20125-1.6399.27772-2.4687.28125s-1.6746-.06588-2.5313-.1875c-2.0135-.41599-4.0487-.68188-6.0625-1.09375-.9474-.20426-1.8495-.51449-2.7187-.90625s-1.7053-.86506-2.5-1.40625c-.7774-.57224-1.3886-1.24403-1.875-2s-.848-1.59611-1.125-2.5c-.1852-.83283-.1485-1.64013-.0313-2.4375s.3151-1.5848.5625-2.375c.0062-.0196-.0062-.04291 0-.0625s.0533-.07476.0625-.09375l-.0625.15625c.2301-.26029.4503-.52746.6875-.78125 .6401-.67921 1.2846-1.37198 2.0313-1.9375 .8328-.58078 1.7027-1.0725 2.625-1.5 1.1246-.55092 2.2551-1.10067 3.4062-1.59375 1.1936-.49359 2.4179-.88363 3.6563-1.25 1.0983-.33193 2.2435-.73214 3.4062-.65625z" display="block" fill="url(#h)"/>
   </g>
   <path d="m917.2 302.28c-1.4526 0.85208-2.9305 1.6965-4.375 2.5625-2.4886 1.4642-4.955 2.9425-7.4062 4.4688-2.6339 1.5812-5.375 2.978-8.0938 4.4062-3.374 1.7264-6.7429 3.4538-10.219 4.9688-4.8242 2.1331-9.7281 4.0795-14.688 5.875-6.8344 2.4261-13.765 4.6523-20.688 6.8125-7.0383 2.1744-14.153 4.1131-21.281 5.9688-2.5109 0.65518-5.2065 1.1747-7.8125 1.9062-1.303 0.36576-2.5578 0.80701-3.7812 1.3125s-2.3936 1.0868-3.4688 1.8125c-0.25553 0.50374-0.28889 0.8442-0.40625 1.25 1.0326-0.73873 2.1767-1.3346 3.375-1.8438 1.2116-0.51474 2.5109-0.94709 3.8125-1.3125 2.6032-0.73082 5.2972-1.2265 7.7812-1.875 7.1303-1.8534 14.24-3.8297 21.281-6 6.9239-2.1599 13.82-4.3566 20.656-6.7812 4.9637-1.7917 9.8897-3.7464 14.719-5.875 3.478-1.5143 6.8423-3.2434 10.219-4.9688 2.7211-1.4277 5.4548-2.83 8.0938-4.4062 2.4516-1.5252 4.9501-3.0031 7.4375-4.4688 1.569-0.93862 3.142-1.8559 4.7188-2.7812l0.4062-1.0312h-0.2812zm28.656 0c-1.9997 0.86067-4.0143 1.7274-6 2.625-3.609 1.6832-7.1764 3.4685-10.812 5.0938-4.8561 2.1681-9.8275 4.0398-14.719 6.125-6.1455 2.7046-12.281 5.4549-18.469 8.0625-6.1352 2.6406-12.34 5.1061-18.562 7.5312-6.186 2.5506-12.511 4.755-18.906 6.7188-5.0705 1.6092-10.225 2.9303-15.406 4.125-4.098 0.94571-8.2428 1.6092-12.406 2.1875-3.5826 0.47026-7.1671 0.90247-10.781 1-0.85913 0.17825-1.8775 0.05709-2.7812-0.3125-0.45186-0.18479-0.89882-0.41831-1.25-0.71875-0.33968-0.2906-0.60438-0.64552-0.78125-1.0312-0.08622 0.311-0.30353 0.71144-0.3125 0.96875-0.02108 0.60463 0.16899 1.0593 0.53125 1.4062s0.90874 0.57503 1.5938 0.71875 1.4903 0.1926 2.4375 0.1875c3.619-0.09292 7.2251-0.5297 10.812-1 4.167-0.57737 8.3358-1.2432 12.438-2.1875 5.1842-1.1934 10.333-2.485 15.406-4.0938 3.199-0.98069 6.3771-2.0419 9.5312-3.1562s6.281-2.2866 9.375-3.5625c6.2238-2.4243 12.426-4.8905 18.562-7.5312 6.1887-2.6055 12.324-5.3562 18.469-8.0625 4.8903-2.0884 9.8614-3.9897 14.719-6.1562 3.6371-1.6232 7.205-3.3755 10.812-5.0625 2.1901-0.99072 4.423-1.9171 6.5938-2.9375l0.4375-0.9375h-0.5313z" display="block" fill-opacity=".88235"/>
   <path d="m814.97812,343.68802c.00505-.01821-.00532-.04409 0-.0625l-.03125.03125c.00576.01316.02526.01819.03125.03125z" display="block" fill="#0ff" fill-opacity=".88235"/>
   <path d="m888.36 299.3-4.2812 2.6875-2.0625-1.3438 6.3438-1.3438z" display="block" fill="#00aaac"/>
   <path d="m876.82 294.79c8.6433 11.008 22.907 15.262 36.167 17.431 13.778 1.2005 27.568-0.99189 41.329-1.5497 17.162-1.1304 34.043-4.6539 51.007-7.3126 10.253-1.7869 20.672-3.7802 30.166-8.172 4.4904-1.6164 7.1065-6.1229 1.8597-9.1083-10.656-9.5544-24.924-14.177-39.091-14.57-17.775-0.93553-35.7 0.19978-53.194 3.4736-10.72 2.7159-21.541 5.0049-32.291 7.6039-9.9404 2.5875-19.686 5.9408-29.426 9.2002-2.6683 1.0986-6.0967 0.92799-6.5185 4.1208 0.86597-6.4381 10.731-5.3009 15.493-8.222 9.5974-3.03 19.132-6.2845 29.039-8.1782 9.209-2.3227 18.516-4.2429 27.746-6.454 20.043-3.0095 40.587-4.4695 60.721-1.5221 11.209 1.883 22.102 7.149 30.039 15.346 3.9095 5.6104-4.427 9.726-8.775 11.283-18.645 6.4762-38.474 8.0656-57.787 11.582-16.827 2.5354-33.879 3.087-50.847 4.081-12.912 0.45357-25.921-3.0971-37.078-9.5225-2.4674-2.3335-9.876-6.0681-8.56-9.5098z"/>
   <path d="m945.92 302.3h-28.375l-0.4062 1.0312c-1.5768 0.92538-3.1497 1.8426-4.7188 2.7812-2.4874 1.4657-4.9859 2.9436-7.4375 4.4688-2.6389 1.5763-5.3726 2.9786-8.0938 4.4062-3.3765 1.7253-6.7408 3.4545-10.219 4.9688-4.829 2.1286-9.755 4.0833-14.719 5.875-6.8364 2.4246-13.732 4.6213-20.656 6.7812-7.0412 2.1703-14.151 4.1466-21.281 6-2.484 0.64854-5.1781 1.1442-7.7812 1.875-1.3016 0.36541-2.6009 0.79776-3.8125 1.3125-1.1983 0.50912-2.3424 1.105-3.375 1.8438-0.00532 0.01841 0.00505 0.04429 0 0.0625 0.17687 0.38573 0.44157 0.74065 0.78125 1.0312 0.35118 0.30044 0.79814 0.53396 1.25 0.71875 0.90373 0.36959 1.9221 0.49075 2.7812 0.3125 3.6142-0.09753 7.1986-0.52974 10.781-1 4.1635-0.57834 8.3082-1.2418 12.406-2.1875 5.1812-1.1947 10.336-2.5158 15.406-4.125 6.3948-1.9637 12.72-4.1681 18.906-6.7188 6.2226-2.4252 12.427-4.8907 18.562-7.5312 6.1877-2.6076 12.323-5.358 18.469-8.0625 4.8913-2.0852 9.8628-3.9569 14.719-6.125 3.636-1.6253 7.2034-3.4106 10.812-5.0938 1.9856-0.89761 4.0003-1.7643 6-2.625z" display="block" fill="#fff"/>
   <path d="m945.92 302.3h-28.375l-0.4062 1.0312c-1.5768 0.92538-3.1497 1.8426-4.7188 2.7812-2.4874 1.4657-4.9859 2.9436-7.4375 4.4688-2.6389 1.5763-5.3726 2.9786-8.0938 4.4062-3.3765 1.7253-6.7408 3.4545-10.219 4.9688-4.829 2.1286-9.755 4.0833-14.719 5.875-6.8364 2.4246-13.732 4.6213-20.656 6.7812-7.0412 2.1703-14.151 4.1466-21.281 6-2.484 0.64854-5.1781 1.1442-7.7812 1.875-1.3016 0.36541-2.6009 0.79776-3.8125 1.3125-1.1983 0.50912-2.3424 1.105-3.375 1.8438-0.00532 0.01841 0.00505 0.04429 0 0.0625 0.17687 0.38573 0.44157 0.74065 0.78125 1.0312 0.35118 0.30044 0.79814 0.53396 1.25 0.71875 0.90373 0.36959 1.9221 0.49075 2.7812 0.3125 3.6142-0.09753 7.1986-0.52974 10.781-1 4.1635-0.57834 8.3082-1.2418 12.406-2.1875 5.1812-1.1947 10.336-2.5158 15.406-4.125 6.3948-1.9637 12.72-4.1681 18.906-6.7188 6.2226-2.4252 12.427-4.8907 18.562-7.5312 6.1877-2.6076 12.323-5.358 18.469-8.0625 4.8913-2.0852 9.8628-3.9569 14.719-6.125 3.636-1.6253 7.2034-3.4106 10.812-5.0938 1.9856-0.89761 4.0003-1.7643 6-2.625z" display="block" fill="url(#g)"/>
   <path d="m1019.9 274.25c-0.1137 1.2093-0.975 1.9475-1.7915 2.6937-1.3239 0.97992-2.9309 1.3593-4.5043 1.7433-2.2183 0.58364-4.4735 1.0032-6.7306 1.4034-3.1121 0.54942-2.7537 1.4477-2.9287 1.83 0.082 2.0222 1.1126 3.3031 2.6804 4.44 1.7788 1.0317 3.7321 1.2908 5.7476 1.2939 2.0989-0.14441 4.0968-0.81775 6.0748-1.4867 1.8305-0.58882 3.5711-1.4027 5.2623-2.3085 1.5706-0.79316 2.8018-1.91 3.8352-3.3109-0.1726 0.47085-0.2372 0.47543 0.2522-1.0079l0.7638-1.1c-0.3712 1.1773-0.7199 2.337-1.4448 3.3766-1.0619 1.3884-2.3174 2.496-3.8941 3.2894-1.7002 0.90096-3.4486 1.7108-5.2849 2.2994-1.9887 0.67105-4.0003 1.3385-6.111 1.4711-2.0409-0.01247-4.0192-0.28496-5.8196-1.3287-1.5982-1.1516-2.6785-2.4504-2.794-4.5064 0.0902-2.7173 1.7353-3.7976 4.1915-4.1811 2.2537-0.40206 4.5056-0.82235 6.7205-1.4076 1.5619-0.38335 3.1538-0.76748 4.4544-1.7632 1.5517-1.4801 0.2721 0.3069 0.5855-0.3206l0.7353-1.1193z"/>
   <path d="m1019.5745,274.94102c-.1135.29222-.1553.63117-.3437.875-.3316.42899-.748.78313-1.1563,1.15625-.662.48996-1.3923.82841-2.1563,1.09375s-1.557.46425-2.3437.65625c-2.2183.58365-4.4929,1.00615-6.75,1.40625-1.556.27472-2.2412.62772-2.5625.96875s-.2563.68386-.3438.875c.0411,1.01108.3174,1.81613.7813,2.53125s1.0911,1.33781 1.875,1.90625c.8894.51586 1.8499.83712 2.8125,1.03125s1.9298.24845 2.9375.25c1.0495-.07221 2.0847-.26125 3.0937-.53125s2.011-.60303 3-.9375c1.8306-.58883 3.5589-1.40676 5.25-2.3125 .7854-.39657 1.4918-.88404 2.125-1.4375s1.2021-1.17454 1.7188-1.875c-.1726.47087-.2394.45205.25-1.03125l.625-.90625c-.0539-.02807-.1023-.06584-.1562-.09375-2.7792-1.43743-5.6802-2.6391-8.6563-3.625z" display="block" fill="url(#f)"/>
   <path transform="matrix(.75 0 0 .875 173 25.443)" d="m980.18 352.71a3.3902 3.3902 0 1 1 -6.7804 0 3.3902 3.3902 0 1 1 6.7804 0z" display="block" fill="#136264"/>
   <path d="m1056.1875,370.09375c-.0394-.09332-.0842-.27598-.125-.3125-.1092-.09767-.2139.04815-.3437.53125 .159-.12772.3138-.12549.4687-.21875z" display="block" fill="#0e0"/>
   <path d="m959.61 271.71c6.0564-3.1779 11.852-6.9264 17.025-11.409 4.906-4.7133 9.5732-9.6934 13.856-14.98 2.2032-2.8189 4.2713-5.8494 7.189-7.9859 2.5947-1.0316 2.297 2.6893 1.2049 3.9721-2.2623 4.8471-6.1272 8.6722-9.4835 12.759-4.5846 5.3704-8.9146 10.988-12.759 16.901 0.53339-2.0263 2.1478-3.565 3.1922-5.3535 4.7116-6.8789 10.355-13.034 15.6-19.493 1.3135-1.8086 2.9458-3.563 3.4885-5.7765 0.5221-2.6915-2.4821-1.963-3.3572-0.37492-3.7717 3.7977-6.5432 8.4516-10.339 12.232-4.529 4.9288-9.0262 10.008-14.648 13.732-3.6542 2.5929-7.4647 4.973-11.448 7.028l0.47845-1.2508z"/>
   <path d="m977.13 269.99c0.29189-0.7222 0.60986-1.4447 1.0625-2.0938 0.60083-0.86153 1.2591-1.6995 1.7812-2.5938 2.3558-3.4394 4.9383-6.669 7.5938-9.875s5.3773-6.3642 8-9.5938c0.65672-0.90428 1.4224-1.8086 2.0625-2.75s1.1661-1.9245 1.4375-3.0312c0.13052-0.67287 0.0344-1.1521-0.1875-1.4375s-0.57116-0.3971-0.96875-0.375-0.8222 0.18794-1.2188 0.4375-0.74998 0.60298-0.96875 1c-1.8859 1.8988-3.5175 4.0142-5.1562 6.125s-3.2898 4.2033-5.1875 6.0938c-2.2645 2.4644-4.5131 4.961-6.9062 7.3125-1.1966 1.1757-2.4358 2.3294-3.7188 3.4062s-2.6258 2.1002-4.0312 3.0312c-3.2837 2.33-6.7332 4.4076-10.281 6.3125l16.688-1.9688z" display="block" fill="#fff"/>
   <path d="m977.13 269.99c0.29189-0.7222 0.60986-1.4447 1.0625-2.0938 0.60083-0.86153 1.2591-1.6995 1.7812-2.5938 2.3558-3.4394 4.9383-6.669 7.5938-9.875s5.3773-6.3642 8-9.5938c0.65672-0.90428 1.4224-1.8086 2.0625-2.75s1.1661-1.9245 1.4375-3.0312c0.13052-0.67287 0.0344-1.1521-0.1875-1.4375s-0.57116-0.3971-0.96875-0.375-0.8222 0.18794-1.2188 0.4375-0.74998 0.60298-0.96875 1c-1.8859 1.8988-3.5175 4.0142-5.1562 6.125s-3.2898 4.2033-5.1875 6.0938c-2.2645 2.4644-4.5131 4.961-6.9062 7.3125-1.1966 1.1757-2.4358 2.3294-3.7188 3.4062s-2.6258 2.1002-4.0312 3.0312c-3.2837 2.33-6.7332 4.4076-10.281 6.3125l16.688-1.9688z" display="block" fill="url(#e)"/>
   <g transform="matrix(.99903 .043994 -.043994 .99903 13.812 -37.395)">
    <path d="m882.05 297.62c-7.5197 3.2662-15.05 6.5417-22.325 10.326-0.53474 0.58466-2.3853 1.7509-2.3234 0.34722 1.1104-0.90051 2.6076-1.0648 3.8754-1.6735 4.5476-1.9998 9.2672-3.5737 13.957-5.203 4.6382-1.578 9.2984-3.0908 13.931-4.6868-0.33083 1.4883-2.019 1.8236-3.2689 2.1788-9.6408 3.2446-19.361 6.3216-28.695 10.394-0.46795-1.6743 1.7734-1.9335 2.8111-2.5653 6.8052-3.2852 13.613-6.5803 20.58-9.5074 0.68221-0.33741 2.5948-1.2364 1.459 0.3899z"/>
    <path d="m865.66 305c3.0357-1.1415 6.0561-2.335 9.1187-3.3991 4.8184-1.6394 9.6663-3.213 14.479-4.8698h-7.1904c0.06358 0.02317 0.1814-0.00228 0.1961 0.06536 0.03163 0.14554-0.06254 0.39187-0.35952 0.81709-3.9323 1.708-7.863 3.4185-11.766 5.1967-1.5124 0.68903-2.9768 1.4766-4.4776 2.1898z" display="block" fill="#fff"/>
    <path d="m865.66 305c3.0357-1.1415 6.0561-2.335 9.1187-3.3991 4.8184-1.6394 9.6663-3.213 14.479-4.8698h-7.1904c0.06358 0.02317 0.1814-0.00228 0.1961 0.06536 0.03163 0.14554-0.06254 0.39187-0.35952 0.81709-3.9323 1.708-7.863 3.4185-11.766 5.1967-1.5124 0.68903-2.9768 1.4766-4.4776 2.1898z" display="block" fill="url(#d)"/>
   </g>
  </g>
 </g>
</svg>
